<svg width="583" height="270" viewBox="0 0 583 270" fill="none" xmlns="http://www.w3.org/2000/svg">
<rect x="178" y="26" width="405" height="141" rx="13" fill="url(#paint0_linear_619_11)"/>
<path d="M185.096 217.872C185.096 212.976 186.2 208.584 188.408 204.696C190.616 200.76 193.616 197.688 197.408 195.48C201.248 193.272 205.496 192.168 210.152 192.168C215.624 192.168 220.4 193.488 224.48 196.128C228.56 198.768 231.536 202.512 233.408 207.36H225.56C224.168 204.336 222.152 202.008 219.512 200.376C216.92 198.744 213.8 197.928 210.152 197.928C206.648 197.928 203.504 198.744 200.72 200.376C197.936 202.008 195.752 204.336 194.168 207.36C192.584 210.336 191.792 213.84 191.792 217.872C191.792 221.856 192.584 225.36 194.168 228.384C195.752 231.36 197.936 233.664 200.72 235.296C203.504 236.928 206.648 237.744 210.152 237.744C213.8 237.744 216.92 236.952 219.512 235.368C222.152 233.736 224.168 231.408 225.56 228.384H233.408C231.536 233.184 228.56 236.904 224.48 239.544C220.4 242.136 215.624 243.432 210.152 243.432C205.496 243.432 201.248 242.352 197.408 240.192C193.616 237.984 190.616 234.936 188.408 231.048C186.2 227.16 185.096 222.768 185.096 217.872ZM260.369 243.648C256.673 243.648 253.313 242.808 250.289 241.128C247.313 239.448 244.961 237.072 243.233 234C241.553 230.88 240.713 227.28 240.713 223.2C240.713 219.168 241.577 215.616 243.305 212.544C245.081 209.424 247.481 207.048 250.505 205.416C253.529 203.736 256.913 202.896 260.657 202.896C264.401 202.896 267.785 203.736 270.809 205.416C273.833 207.048 276.209 209.4 277.937 212.472C279.713 215.544 280.601 219.12 280.601 223.2C280.601 227.28 279.689 230.88 277.865 234C276.089 237.072 273.665 239.448 270.593 241.128C267.521 242.808 264.113 243.648 260.369 243.648ZM260.369 237.888C262.721 237.888 264.929 237.336 266.993 236.232C269.057 235.128 270.713 233.472 271.961 231.264C273.257 229.056 273.905 226.368 273.905 223.2C273.905 220.032 273.281 217.344 272.033 215.136C270.785 212.928 269.153 211.296 267.137 210.24C265.121 209.136 262.937 208.584 260.585 208.584C258.185 208.584 255.977 209.136 253.961 210.24C251.993 211.296 250.409 212.928 249.209 215.136C248.009 217.344 247.409 220.032 247.409 223.2C247.409 226.416 247.985 229.128 249.137 231.336C250.337 233.544 251.921 235.2 253.889 236.304C255.857 237.36 258.017 237.888 260.369 237.888ZM308.44 202.824C313.24 202.824 317.128 204.288 320.104 207.216C323.08 210.096 324.568 214.272 324.568 219.744V243H318.088V220.68C318.088 216.744 317.104 213.744 315.136 211.68C313.168 209.568 310.48 208.512 307.072 208.512C303.616 208.512 300.856 209.592 298.792 211.752C296.776 213.912 295.768 217.056 295.768 221.184V243H289.216V203.544H295.768V209.16C297.064 207.144 298.816 205.584 301.024 204.48C303.28 203.376 305.752 202.824 308.44 202.824ZM349.239 243.648C346.215 243.648 343.503 243.144 341.103 242.136C338.703 241.08 336.807 239.64 335.415 237.816C334.023 235.944 333.255 233.808 333.111 231.408H339.879C340.071 233.376 340.983 234.984 342.615 236.232C344.295 237.48 346.479 238.104 349.167 238.104C351.663 238.104 353.631 237.552 355.071 236.448C356.511 235.344 357.231 233.952 357.231 232.272C357.231 230.544 356.463 229.272 354.927 228.456C353.391 227.592 351.015 226.752 347.799 225.936C344.871 225.168 342.471 224.4 340.599 223.632C338.775 222.816 337.191 221.64 335.847 220.104C334.551 218.52 333.903 216.456 333.903 213.912C333.903 211.896 334.503 210.048 335.703 208.368C336.903 206.688 338.607 205.368 340.815 204.408C343.023 203.4 345.543 202.896 348.375 202.896C352.743 202.896 356.271 204 358.959 206.208C361.647 208.416 363.087 211.44 363.279 215.28H356.727C356.583 213.216 355.743 211.56 354.207 210.312C352.719 209.064 350.703 208.44 348.159 208.44C345.807 208.44 343.935 208.944 342.543 209.952C341.151 210.96 340.455 212.28 340.455 213.912C340.455 215.208 340.863 216.288 341.679 217.152C342.543 217.968 343.599 218.64 344.847 219.168C346.143 219.648 347.919 220.2 350.175 220.824C353.007 221.592 355.311 222.36 357.087 223.128C358.863 223.848 360.375 224.952 361.623 226.44C362.919 227.928 363.591 229.872 363.639 232.272C363.639 234.432 363.039 236.376 361.839 238.104C360.639 239.832 358.935 241.2 356.727 242.208C354.567 243.168 352.071 243.648 349.239 243.648ZM407.88 203.544V243H401.328V237.168C400.08 239.184 398.328 240.768 396.072 241.92C393.864 243.024 391.416 243.576 388.728 243.576C385.656 243.576 382.896 242.952 380.448 241.704C378 240.408 376.056 238.488 374.616 235.944C373.224 233.4 372.528 230.304 372.528 226.656V203.544H379.008V225.792C379.008 229.68 379.992 232.68 381.96 234.792C383.928 236.856 386.616 237.888 390.024 237.888C393.528 237.888 396.288 236.808 398.304 234.648C400.32 232.488 401.328 229.344 401.328 225.216V203.544H407.88ZM425.494 189.72V243H418.942V189.72H425.494ZM444.653 208.944V232.2C444.653 234.12 445.061 235.488 445.877 236.304C446.693 237.072 448.109 237.456 450.125 237.456H454.949V243H449.045C445.397 243 442.661 242.16 440.837 240.48C439.013 238.8 438.101 236.04 438.101 232.2V208.944H432.989V203.544H438.101V193.608H444.653V203.544H454.949V208.944H444.653ZM466.272 197.136C465.024 197.136 463.968 196.704 463.104 195.84C462.24 194.976 461.808 193.92 461.808 192.672C461.808 191.424 462.24 190.368 463.104 189.504C463.968 188.64 465.024 188.208 466.272 188.208C467.472 188.208 468.48 188.64 469.296 189.504C470.16 190.368 470.592 191.424 470.592 192.672C470.592 193.92 470.16 194.976 469.296 195.84C468.48 196.704 467.472 197.136 466.272 197.136ZM469.44 203.544V243H462.888V203.544H469.44ZM499.831 202.824C504.631 202.824 508.519 204.288 511.495 207.216C514.471 210.096 515.959 214.272 515.959 219.744V243H509.479V220.68C509.479 216.744 508.495 213.744 506.527 211.68C504.559 209.568 501.871 208.512 498.463 208.512C495.007 208.512 492.247 209.592 490.183 211.752C488.167 213.912 487.159 217.056 487.159 221.184V243H480.607V203.544H487.159V209.16C488.455 207.144 490.207 205.584 492.415 204.48C494.671 203.376 497.143 202.824 499.831 202.824ZM542.933 202.896C546.341 202.896 549.317 203.64 551.861 205.128C554.453 206.616 556.373 208.488 557.621 210.744V203.544H564.245V243.864C564.245 247.464 563.477 250.656 561.941 253.44C560.405 256.272 558.197 258.48 555.317 260.064C552.485 261.648 549.173 262.44 545.381 262.44C540.197 262.44 535.877 261.216 532.421 258.768C528.965 256.32 526.925 252.984 526.301 248.76H532.781C533.501 251.16 534.989 253.08 537.245 254.52C539.501 256.008 542.213 256.752 545.381 256.752C548.981 256.752 551.909 255.624 554.165 253.368C556.469 251.112 557.621 247.944 557.621 243.864V235.584C556.325 237.888 554.405 239.808 551.861 241.344C549.317 242.88 546.341 243.648 542.933 243.648C539.429 243.648 536.237 242.784 533.357 241.056C530.525 239.328 528.293 236.904 526.661 233.784C525.029 230.664 524.213 227.112 524.213 223.128C524.213 219.096 525.029 215.568 526.661 212.544C528.293 209.472 530.525 207.096 533.357 205.416C536.237 203.736 539.429 202.896 542.933 202.896ZM557.621 223.2C557.621 220.224 557.021 217.632 555.821 215.424C554.621 213.216 552.989 211.536 550.925 210.384C548.909 209.184 546.677 208.584 544.229 208.584C541.781 208.584 539.549 209.16 537.533 210.312C535.517 211.464 533.909 213.144 532.709 215.352C531.509 217.56 530.909 220.152 530.909 223.128C530.909 226.152 531.509 228.792 532.709 231.048C533.909 233.256 535.517 234.96 537.533 236.16C539.549 237.312 541.781 237.888 544.229 237.888C546.677 237.888 548.909 237.312 550.925 236.16C552.989 234.96 554.621 233.256 555.821 231.048C557.021 228.792 557.621 226.176 557.621 223.2Z" fill="#121212"/>
<ellipse cx="35.5" cy="31" rx="35.5" ry="31" transform="matrix(-1 0 0 1 107.734 95.0001)" fill="url(#paint1_linear_619_11)"/>
<path d="M67.4612 87.9237C3.72989 91.8506 6.74661 177.475 7.30048 153.695C7.85435 129.914 -26.4511 -7.6352 69.4669 1.80723C165.385 11.2497 158.381 23.1664 157.827 46.9468C157.273 70.7272 131.192 83.9967 67.4612 87.9237Z" fill="url(#paint2_linear_619_11)"/>
<path d="M67.981 168.763C13.3297 165.438 1.88857 78.7943 2.63813 101.369C0.893067 170.991 13.4875 238.066 70.6954 250.513C127.903 262.961 146.631 229.672 145.881 207.097C145.132 184.522 122.632 172.089 67.981 168.763Z" fill="url(#paint3_linear_619_11)"/>
<path d="M266.358 138.629H218.142V51.4502H265.444V64.7041H232.881V86.6416H263.959V99.7812H232.881V125.489H266.358V138.629ZM334.228 138.629H316.061L288.867 105.037V138.629H274.356V51.4502H288.867V81.957L313.89 51.4502H331.6L297.551 92.6973L334.228 138.629ZM383.473 138.629H335.142V51.4502H349.881V125.489H383.473V138.629ZM440.83 95.0967C440.83 90.5264 440.259 86.1465 439.116 81.957C437.974 77.6914 436.412 74.0732 434.432 71.1025C432.527 68.3604 430.242 66.3037 427.576 64.9326C424.91 63.4854 422.244 62.7617 419.578 62.7617C416.912 62.7617 414.208 63.4854 411.466 64.9326C408.8 66.3037 406.553 68.3604 404.725 71.1025C402.668 74.0732 401.068 77.6914 399.926 81.957C398.783 86.1465 398.212 90.5264 398.212 95.0967C398.212 99.667 398.783 104.047 399.926 108.236C401.068 112.35 402.668 115.892 404.725 118.862C406.553 121.681 408.8 123.775 411.466 125.146C414.208 126.518 416.912 127.203 419.578 127.203C422.244 127.203 424.91 126.518 427.576 125.146C430.242 123.775 432.527 121.681 434.432 118.862C436.412 115.892 437.974 112.35 439.116 108.236C440.259 104.047 440.83 99.667 440.83 95.0967ZM455.684 95.0967C455.684 101.19 454.846 107.056 453.17 112.692C451.57 118.329 449.171 123.166 445.972 127.203C442.772 131.316 438.812 134.478 434.089 136.687C429.442 138.896 424.605 140 419.578 140C414.475 140 409.562 138.896 404.839 136.687C400.192 134.478 396.27 131.316 393.07 127.203C389.871 123.166 387.434 118.329 385.758 112.692C384.158 107.056 383.358 101.19 383.358 95.0967C383.358 89.0029 384.158 83.1377 385.758 77.501C387.434 71.8643 389.871 66.9893 393.07 62.876C396.27 58.8389 400.192 55.6777 404.839 53.3926C409.562 51.1074 414.475 49.9648 419.578 49.9648C424.605 49.9648 429.442 51.1074 434.089 53.3926C438.812 55.6777 442.772 58.8389 445.972 62.876C449.171 66.9893 451.57 71.8643 453.17 77.501C454.846 83.1377 455.684 89.0029 455.684 95.0967ZM523.553 79.1006H508.242C508.242 74.9873 507.823 72.0928 506.985 70.417C506.224 68.665 505.233 67.2178 504.015 66.0752C502.796 65.1611 501.387 64.4375 499.787 63.9043C498.264 63.3711 496.816 63.0664 495.445 62.9902C492.779 62.9902 490.189 63.5996 487.676 64.8184C485.238 65.9609 483.029 67.7891 481.049 70.3027C478.992 73.1211 477.354 76.6631 476.136 80.9287C474.917 85.1182 474.308 89.3838 474.308 93.7256C474.308 96.4678 474.65 99.7812 475.336 103.666C476.098 107.551 477.354 111.321 479.106 114.978C480.782 118.405 483.182 121.262 486.305 123.547C489.428 125.832 493.312 126.975 497.959 126.975C501.768 126.975 505.157 126.518 508.128 125.604V103.095H490.304V89.7266H522.867V132.688C515.326 137.562 506.224 140 495.56 140C489.237 140 483.715 138.591 478.992 135.772C474.346 132.878 470.537 129.184 467.566 124.689C464.596 120.348 462.463 115.511 461.168 110.179C459.949 104.771 459.34 99.2861 459.34 93.7256C459.34 88.0889 459.987 82.6807 461.282 77.501C462.653 72.3213 464.862 67.7891 467.909 63.9043C470.88 59.9434 474.65 56.6299 479.221 53.9639C483.791 51.2979 489.199 49.9648 495.445 49.9648C499.254 49.9648 502.872 50.6504 506.3 52.0215C509.728 53.3926 512.698 55.2207 515.212 57.5059C517.802 59.7148 519.82 62.4189 521.268 65.6182C522.791 68.8174 523.553 73.3115 523.553 79.1006ZM548.232 138.629H533.493V51.4502H548.232V138.629Z" fill="url(#paint4_linear_619_11)"/>
<defs>
<linearGradient id="paint0_linear_619_11" x1="380.5" y1="26" x2="380.5" y2="167" gradientUnits="userSpaceOnUse">
<stop stop-color="#53B0F4"/>
<stop offset="1" stop-color="#0038C8"/>
</linearGradient>
<linearGradient id="paint1_linear_619_11" x1="35.5" y1="0" x2="35.5" y2="62" gradientUnits="userSpaceOnUse">
<stop stop-color="#0EC9C5"/>
<stop offset="1" stop-color="#038783"/>
</linearGradient>
<linearGradient id="paint2_linear_619_11" x1="157.101" y1="82.4635" x2="1.83789" y2="78.8473" gradientUnits="userSpaceOnUse">
<stop stop-color="#00CC52"/>
<stop offset="1" stop-color="#026536"/>
</linearGradient>
<linearGradient id="paint3_linear_619_11" x1="144.724" y1="172.245" x2="4.36344" y2="176.905" gradientUnits="userSpaceOnUse">
<stop stop-color="#53B0F4"/>
<stop offset="1" stop-color="#0038C8"/>
</linearGradient>
<linearGradient id="paint4_linear_619_11" x1="382.026" y1="43.2837" x2="382.026" y2="151" gradientUnits="userSpaceOnUse">
<stop stop-color="white"/>
<stop offset="1" stop-color="white"/>
</linearGradient>
</defs>
</svg>
